<svg xmlns="http://www.w3.org/2000/svg" width="81.581" height="4.893" viewBox="0 0 81.581 4.893">
  <path id="Pfad_1180" data-name="Pfad 1180" d="M257.332,441.3a1.63,1.63,0,0,1,1.385.552c.71,1.126,1.7,2.592,3.509,2.738,2.425.195,6.01-1.941,8.258-2.46.986.774,2.311,2.991,4.233,3.061,1.871.07,4.538-2.758,5.664-3.453,1.455.819,1.794,2.646,4.1,2.567,2.463-.084,4.576-2.495,7.2-2.923.041.52.846,3.034,1.641,3.2,1.7.363,8.444-2.77,10.772-3.11a7.071,7.071,0,0,0,4.639,2.963c1.417-1.31,4.927-2.113,7.149-3.018,1.09.824,1.581,2.155,3.285,2.624,1.294-.632,5.924-2.771,7.5-2.408.3.07,2.6,2.334,3.339,2.757.848-.922,5.745-2.335,8.252-3.012a2.7,2.7,0,0,1,.655-.083" transform="translate(-257.332 -440.8)" fill="none" stroke="#020506" stroke-width="1"/>
</svg>
